<?xml version="1.0" standalone="no"?>
<!DOCTYPE svg PUBLIC "-//W3C//DTD SVG 20010904//EN" "http://www.w3.org/TR/2001/REC-SVG-20010904/DTD/svg10.dtd">
<svg version="1.0" xmlns="http://www.w3.org/2000/svg" width="512.000000pt" height="512.000000pt"
    viewBox="0 0 512.000000 512.000000" preserveAspectRatio="xMidYMid meet">
    <metadata>
        Created by potrace 1.14, written by Peter Selinger 2001-2017
    </metadata>
    <g transform="translate(0.000000,512.000000) scale(0.100000,-0.100000)" fill="#000000" stroke="none">
        <path d="M4032 5101 c-220 -88 -278 -403 -105 -577 29 -30 60 -54 68 -54 8 0
15 -4 15 -9 0 -5 18 -12 40 -16 22 -4 40 -12 41 -18 4 -50 1 -269 -4 -273 -3
-4 -219 -7 -479 -7 l-473 0 -21 63 c-28 79 -67 135 -127 180 -55 42 -105 57
-173 54 -44 -2 -84 -9 -91 -14 -2 -2 -6 -3 -10 -4 -28 -5 -88 -58 -144 -124
-38 -46 -62 -191 -46 -280 21 -119 140 -243 247 -256 19 -3 35 -5 35 -6 0 -1
10 -3 23 -4 12 -2 22 0 22 4 0 4 10 6 22 5 49 -4 149 63 197 132 19 28 55 118
60 148 1 6 139 10 393 10 l392 0 1 -180 c0 -99 -1 -186 -3 -192 -2 -7 -11 -13
-19 -13 -55 0 -143 -76 -180 -156 -56 -118 -28 -285 62 -366 27 -24 90 -58
110 -58 8 0 15 -3 15 -7 0 -5 20 -8 45 -9 25 0 45 2 45 6 0 5 18 9 58 12 6 1
12 4 12 7 0 4 15 15 34 25 43 23 89 87 111 155 29 88 7 243 -39 273 -6 4 -7 8
-2 8 5 0 -7 15 -26 33 -47 44 -78 68 -78 61 0 -4 -7 -1 -15 6 -8 7 -15 9 -15
6 0 -4 -9 -2 -20 4 -20 10 -20 19 -18 198 l3 187 84 2 c46 1 85 4 87 6 2 2 5
86 7 187 l2 183 47 16 c85 29 168 114 197 202 18 56 32 158 21 164 -3 2 -7 18
-8 35 -3 44 -48 131 -87 172 -37 39 -78 72 -85 71 -3 0 -16 4 -30 10 -44 18
-151 17 -198 -2z m191 -89 c79 -35 135 -128 138 -229 1 -32 0 -61 -1 -65 -1
-5 -3 -11 -4 -15 -15 -58 -99 -163 -131 -163 -8 0 -15 -4 -15 -8 0 -13 -69
-18 -127 -8 -31 5 -113 52 -113 65 0 4 -9 16 -19 28 -52 55 -63 201 -22 279
35 69 95 121 149 130 15 3 28 7 30 8 8 9 76 -5 115 -22z m-1348 -659 c20 -11
27 -13 43 -13 13 0 92 -75 92 -88 0 -7 5 -12 12 -12 6 0 8 -3 5 -6 -3 -4 -1
-16 5 -28 17 -29 19 -44 19 -101 0 -65 -5 -84 -30 -131 -30 -56 -53 -80 -101
-105 -53 -28 -140 -30 -187 -6 -41 22 -103 83 -103 102 0 8 -4 15 -9 15 -16 0
-34 100 -28 152 11 91 75 188 135 204 12 3 22 10 22 15 0 4 8 6 18 4 10 -2 24
0 30 4 16 9 53 7 77 -6z" />
        <path d="M184 3689 c-115 -60 -176 -160 -180 -294 -4 -127 42 -232 134 -302
59 -45 167 -74 184 -49 5 8 8 7 8 -1 0 -15 61 0 114 29 68 37 148 141 159 208
10 62 -17 58 393 57 l374 0 10 -41 c20 -77 64 -138 130 -181 46 -29 145 -51
156 -34 2 4 15 6 29 4 14 -1 25 1 25 4 0 3 19 15 41 26 23 10 53 35 68 55 14
19 29 37 33 40 7 6 27 53 35 85 25 105 -2 220 -69 296 -22 25 -108 84 -108 75
0 -3 -15 1 -32 8 -20 8 -41 10 -53 5 -11 -4 -32 -8 -47 -8 -54 -2 -149 -76
-184 -143 -8 -15 -18 -44 -22 -65 -7 -33 -12 -38 -35 -38 -15 1 -27 -2 -27 -5
0 -7 -66 -3 -78 4 -5 3 -14 1 -22 -4 -7 -4 -24 -4 -37 1 -12 5 -23 5 -23 1 0
-9 -64 -7 -78 2 -5 3 -14 1 -22 -4 -7 -4 -24 -4 -37 1 -14 5 -23 5 -23 -1 0
-6 -9 -6 -23 -1 -14 6 -30 5 -41 -1 -11 -6 -21 -7 -25 -1 -7 10 -37 9 -63 -2
-10 -4 -18 -3 -18 2 0 5 -27 6 -59 3 -33 -3 -68 -3 -78 1 -10 4 -26 3 -35 -2
-10 -6 -19 -5 -23 1 -4 6 -11 8 -16 5 -5 -4 -9 1 -9 11 0 43 -45 136 -89 183
-66 72 -110 93 -203 97 -69 4 -81 1 -134 -27z m195 -63 c13 -3 31 -12 41 -21
9 -8 21 -15 26 -15 15 0 72 -92 83 -135 37 -137 -31 -276 -157 -322 -48 -18
-59 -18 -104 -6 -121 31 -180 111 -192 258 -8 93 80 219 172 245 28 8 89 6
131 -4z" />
        <path d="M2287 3168 c-83 -8 -125 -27 -176 -78 -32 -32 -71 -94 -77 -122 -1
-5 -3 -10 -4 -13 -1 -3 -3 -8 -4 -12 -1 -5 -4 -12 -7 -18 -3 -5 -5 -284 -4
-620 l1 -610 25 -55 c34 -74 81 -125 143 -158 l51 -26 535 -1 c594 -2 595 -1
671 63 47 41 87 105 103 169 18 72 15 1217 -3 1264 -29 74 -36 89 -43 89 -5 0
-8 5 -8 10 0 25 -85 91 -142 109 -41 13 -941 21 -1061 9z" />
        <path d="M1566 2618 c-9 -5 -16 -6 -16 -3 0 3 -19 -4 -41 -16 -81 -41 -144
-132 -155 -222 -3 -23 -10 -44 -15 -48 -6 -3 -97 -7 -202 -8 -236 -2 -190 -2
-398 1 -96 1 -180 -2 -186 -5 -7 -4 -10 -125 -11 -357 0 -193 -3 -354 -6 -357
-3 -4 -28 -14 -55 -24 -49 -17 -65 -27 -99 -60 -77 -76 -103 -137 -107 -249
-2 -58 2 -94 11 -113 8 -15 12 -27 9 -27 -3 0 1 -13 10 -30 8 -16 14 -32 13
-35 -7 -13 123 -121 164 -136 60 -21 152 -17 211 9 62 28 133 101 165 171 55
123 27 296 -66 396 -38 41 -114 85 -148 85 -7 0 -16 5 -20 12 -10 16 -13 598
-3 618 6 13 53 15 366 14 197 -1 361 -2 365 -3 4 0 17 -22 30 -48 27 -56 84
-114 136 -139 48 -23 162 -24 200 -1 6 5 12 5 12 2 0 -21 98 82 122 129 24 46
26 52 34 118 13 101 -43 234 -117 279 -21 13 -39 28 -39 32 0 5 -4 5 -10 2 -5
-3 -10 -2 -10 3 0 5 -6 9 -12 10 -92 7 -118 8 -132 0z m-882 -1132 c36 -21 96
-83 96 -100 0 -2 5 -17 12 -33 17 -41 19 -54 18 -103 -1 -116 -83 -226 -182
-244 -13 -3 -23 -5 -23 -6 0 -5 -52 -6 -60 -2 -5 4 -19 8 -30 10 -66 10 -153
115 -161 195 -1 9 -3 20 -4 25 -11 35 6 119 35 167 25 42 85 105 85 89 0 -5 4
-4 8 1 27 38 143 38 206 1z" />
        <path d="M4797 2624 c-1 -2 -18 -5 -37 -7 -108 -13 -227 -137 -246 -256 l-7
-41 -146 0 -147 0 -2 25 c-1 14 -11 45 -23 70 -82 174 -286 216 -416 86 -67
-66 -87 -118 -87 -221 0 -106 24 -165 94 -232 47 -45 90 -64 160 -74 39 -5
122 22 162 53 53 41 106 129 112 186 2 18 31 22 153 20 70 0 131 -1 134 -2 4
-1 10 -17 13 -36 20 -105 103 -208 196 -242 97 -37 212 -14 293 58 177 156
142 472 -64 579 -32 17 -134 41 -142 34z m110 -109 c38 -19 86 -72 107 -117
18 -39 36 -116 31 -132 -2 -6 -6 -25 -8 -42 -7 -47 -35 -100 -74 -139 -85 -85
-222 -85 -308 1 -66 66 -92 188 -60 284 22 66 95 143 152 158 47 13 119 7 160
-13z" />
        <path d="M1515 1535 c-139 -71 -201 -238 -144 -391 15 -41 38 -76 75 -113 30
-30 54 -51 54 -47 0 3 13 0 29 -8 16 -9 31 -13 34 -10 12 12 20 -47 19 -152 0
-113 -4 -134 -24 -134 -31 0 -108 -48 -154 -96 -125 -130 -124 -350 4 -491 28
-31 98 -73 137 -82 11 -3 49 -5 85 -5 79 1 135 26 199 92 115 119 129 309 33
451 -32 48 -121 123 -140 119 -4 -1 -15 2 -24 5 -10 4 -24 9 -30 11 -10 2 -13
37 -11 132 1 71 2 132 2 135 1 4 21 14 44 23 64 24 122 78 154 144 39 80 40
192 2 272 -28 59 -79 118 -119 137 -77 36 -163 40 -225 8z m201 -958 c87 -45
135 -138 129 -252 -3 -78 -17 -112 -68 -168 -44 -47 -98 -70 -164 -69 -175 3
-285 224 -192 389 27 48 47 67 99 97 36 20 55 24 105 22 33 -1 74 -10 91 -19z" />
        <path d="M3881 1548 c-48 -13 -115 -63 -145 -108 -87 -131 -65 -318 49 -418
24 -21 62 -44 84 -51 23 -6 41 -15 42 -19 6 -54 2 -455 -6 -460 -5 -3 -158 -6
-341 -6 l-332 -1 -12 50 c-23 91 -75 165 -149 214 -74 48 -184 51 -272 8 -53
-25 -119 -85 -119 -106 0 -6 -8 -14 -17 -20 -10 -5 -17 -13 -16 -18 3 -10 -8
-54 -16 -68 -14 -25 -19 -102 -9 -157 21 -113 89 -212 179 -258 38 -20 135
-41 144 -32 3 4 18 8 33 10 112 15 223 133 247 264 4 21 11 36 15 33 9 -6 57
-6 138 -3 28 2 52 -1 52 -5 0 -5 6 -5 12 -1 17 11 48 12 48 3 0 -4 12 -4 28 0
15 4 38 6 52 4 14 -2 30 -3 35 -3 6 0 39 0 75 0 36 0 72 0 80 0 8 0 36 0 61 1
25 1 51 -1 57 -5 6 -3 13 -3 15 1 3 5 26 8 51 7 25 -1 45 2 44 5 0 3 0 128 1
278 l1 271 29 7 c31 6 106 56 129 84 23 29 61 108 64 134 2 15 6 29 9 31 9 9
-11 151 -21 154 -6 2 -10 12 -10 23 0 35 -82 121 -139 146 -43 19 -123 24
-170 11z m-901 -854 c64 -13 114 -57 151 -134 29 -59 31 -168 4 -225 -24 -52
-81 -113 -124 -131 -63 -26 -168 -17 -206 19 -7 6 -21 20 -31 29 -69 62 -100
187 -68 280 15 43 63 118 76 118 5 0 18 9 30 20 22 20 91 40 118 35 8 -2 31
-7 50 -11z" />
    </g>
</svg>