<svg viewBox="680 293.006 100 89.587" width="100" height="89.587">
  <path d="M65.188,60.808V45.979c0-2.408-1.952-4.36-4.36-4.36H45.999c-2.408,0-4.361,1.952-4.361,4.36v14.829   c0,2.408,1.953,4.36,4.361,4.36h14.828C63.235,65.168,65.188,63.216,65.188,60.808z" transform="matrix(1.276406, 0, 0, 1.276406, 666.213511, 273.980351)"></path>
  <path d="M20.191,39.366h11.59c0.285,2.011,1.996,3.562,4.085,3.562c2.288,0,4.143-1.854,4.143-4.143s-1.854-4.143-4.143-4.143   c-2.089,0-3.8,1.551-4.085,3.562h-11.59c-0.29-2.329-2.26-4.144-4.666-4.144c-2.604,0-4.724,2.119-4.724,4.725   c0,2.604,2.119,4.725,4.724,4.725C17.932,43.51,19.901,41.695,20.191,39.366z M11.964,38.785c0-1.964,1.598-3.562,3.562-3.562   s3.562,1.598,3.562,3.562s-1.598,3.562-3.562,3.562S11.964,40.749,11.964,38.785z" transform="matrix(1.276406, 0, 0, 1.276406, 666.213511, 273.980351)"></path>
  <path d="M20.25,63.191v-8.749h11.378c0.516,1.702,2.077,2.948,3.947,2.948c2.288,0,4.143-1.854,4.143-4.143   s-1.854-4.144-4.143-4.144s-4.143,1.855-4.143,4.144c0,0.012,0.003,0.021,0.003,0.032H19.087v0.258v0.904v8.748   c-2.328,0.29-4.143,2.259-4.143,4.665c0,2.605,2.119,4.725,4.724,4.725c2.605,0,4.725-2.119,4.725-4.725   C24.393,65.45,22.578,63.481,20.25,63.191z M19.668,71.417c-1.963,0-3.562-1.598-3.562-3.562s1.599-3.562,3.562-3.562   c1.964,0,3.562,1.598,3.562,3.562S21.632,71.417,19.668,71.417z" transform="matrix(1.276406, 0, 0, 1.276406, 666.213511, 273.980351)"></path>
  <path d="M36.156,75.703v-3.764c2.011-0.285,3.562-1.995,3.562-4.084c0-2.288-1.854-4.143-4.143-4.143s-4.143,1.854-4.143,4.143   c0,2.089,1.551,3.799,3.562,4.084v3.764c-2.328,0.291-4.144,2.26-4.144,4.666c0,2.604,2.12,4.724,4.725,4.724   s4.725-2.119,4.725-4.724C40.3,77.963,38.484,75.994,36.156,75.703z M35.575,83.931c-1.964,0-3.562-1.598-3.562-3.562   c0-1.9,1.501-3.445,3.378-3.543h0.367c1.877,0.098,3.378,1.643,3.378,3.543C39.137,82.333,37.539,83.931,35.575,83.931z" transform="matrix(1.276406, 0, 0, 1.276406, 666.213511, 273.980351)"></path>
  <path d="M53.995,33.576c2.406,0,4.375-1.814,4.666-4.143h12.025v5.268c-2.011,0.285-3.562,1.995-3.562,4.084   c0,2.288,1.854,4.143,4.143,4.143s4.144-1.854,4.144-4.143c0-2.089-1.552-3.799-3.562-4.084v-5.268h2.776v-1.163H74.61v-3.974   c2.329-0.291,4.144-2.259,4.144-4.666c0-2.604-2.119-4.724-4.725-4.724c-2.604,0-4.724,2.119-4.724,4.724   c0,2.406,1.814,4.375,4.143,4.666v3.974H58.661c-0.29-2.328-2.26-4.143-4.666-4.143c-2.604,0-4.725,2.119-4.725,4.724   C49.271,31.457,51.391,33.576,53.995,33.576z M70.468,19.631c0-1.964,1.598-3.562,3.562-3.562s3.562,1.598,3.562,3.562   s-1.598,3.562-3.562,3.562S70.468,21.595,70.468,19.631z M53.995,25.29c1.964,0,3.562,1.599,3.562,3.562   c0,1.964-1.598,3.562-3.562,3.562s-3.562-1.598-3.562-3.562C50.434,26.889,52.031,25.29,53.995,25.29z" transform="matrix(1.276406, 0, 0, 1.276406, 666.213511, 273.980351)"></path>
  <path d="M71.268,63.713c-2.288,0-4.143,1.854-4.143,4.143c0,2.089,1.551,3.799,3.561,4.084v6.485H60.236   c-0.291-2.329-2.26-4.143-4.665-4.143c-2.605,0-4.725,2.119-4.725,4.725c0,2.604,2.119,4.724,4.725,4.724   c2.405,0,4.375-1.814,4.665-4.143H71.8v-0.581h0.049v-7.067c2.011-0.285,3.562-1.995,3.562-4.084   C75.41,65.567,73.556,63.713,71.268,63.713z M55.571,82.568c-1.964,0-3.562-1.599-3.562-3.562c0-1.964,1.598-3.562,3.562-3.562   c1.963,0,3.561,1.598,3.561,3.562C59.132,80.97,57.534,82.568,55.571,82.568z" transform="matrix(1.276406, 0, 0, 1.276406, 666.213511, 273.980351)"></path>
  <path d="M84.421,49.137c-2.405,0-4.375,1.814-4.665,4.144h-4.404c-0.285-2.011-1.995-3.562-4.084-3.562   c-2.288,0-4.143,1.854-4.143,4.143s1.854,4.143,4.143,4.143c2.089,0,3.799-1.551,4.084-3.562h4.404   c0.29,2.328,2.26,4.143,4.665,4.143c2.605,0,4.725-2.119,4.725-4.724C89.146,51.256,87.026,49.137,84.421,49.137z M84.421,57.423   c-1.963,0-3.562-1.598-3.562-3.562s1.599-3.562,3.562-3.562c1.964,0,3.562,1.598,3.562,3.562S86.385,57.423,84.421,57.423z" transform="matrix(1.276406, 0, 0, 1.276406, 666.213511, 273.980351)"></path>
</svg>